<?xml version="1.0" encoding="UTF-8"?>
<svg id="Layer_1" xmlns="http://www.w3.org/2000/svg" viewBox="0 0 1080 1080">
  <style> path { fill: #ff0000; } </style>
  <path d="M369.15,499.73c-13.12,37.07-26.24,74.14-39.35,111.16-31.93,4.09-42.98-3.42-51.48-34.07-1.99-7.18-.61-11.53,5.37-16.53,20.27-16.95,40.42-34.14,59.35-52.54,7.84-7.62,12.5-18.53,17.48-28.82-20.79,30.74-50.19,51.56-80.04,72.26-5.37-4.37-10.39-8.8-15.76-12.76-11.21-8.26-14.41-18.65-10.74-32.17,2.75-10.13,3.81-20.72,5.83-32.31,52.06,18.4,94.78,1.86,128.32-42.35.46.41,1.37.89,1.32,1.21-5.78,35.81,8.11,67.02,23.35,97.69,18.25,36.72,42.52,68.86,75.03,94.35,1.89,1.49,3.39,3.48,4.28,4.41-11.54,7.03-22.75,13.85-33.96,20.67-1.53.93-3.03,1.96-4.66,2.69-35.93,16.01-36.15,13.78-48.15-17.09-17.01-43.75-24.15-89.16-20.08-136.12.11-1.28.01-2.59-.72-3.81-8.92,56.27-2.34,110.5,23.62,164.57-26.84-6.78-42.91-34.4-72.82-27.6.79-24.78,8.65-45.94,15.06-67.36,6.47-21.62,13.44-43.09,20.2-64.63-.48-.28-.96-.56-1.43-.84ZM288.21,530.79c8.84-5.72,10.76-12.3,6.89-19.2-6.47,1.56-12.57,2.6-18.35,4.6-2.94,1.02-7.3,3.62-7.43,5.73-.19,3.19,2.17,8.82,4.47,9.41,4.55,1.16,9.8-.42,14.76-.87l-.34.33ZM417.72,606.37c-.72,2.89-2.15,6.14-2.22,9.42-.15,7.73-1.01,15.82.92,23.11,2.49,9.42,12.4,11.68,19.7,6.62,3.92-2.72,8.76-4.74,13.46-5.56,8.75-1.53,16.3-3.98,17.46-14.18.97-8.5-8.97-18.97-21.04-23.04-9.01-3.04-15.26-.57-18.11,10.09-4-2.54-7.17-4.56-10.17-6.46ZM358.65,619.6c.96,1.08,1.73,1.83,2.35,2.68,4.67,6.31,10.59,9.42,17.34,3.94,6.07-4.93,3.88-11.11,1.03-17.49-4.37-9.8-9.92-15.09-21.69-11.89-6.45,1.75-15.19,10.55-13.92,17.4,1.81,9.78,8.75,7.14,14.88,5.36ZM304.22,587.48c-5.34-4.63-11.88-9.32-11.45-10.08,2.92-5.18,6.61-10.66,11.5-13.72,2.76-1.72,8.29,1,12.57,1.72-1.18,5.56-2.06,11.21-3.7,16.63-.53,1.75-3.53,2.63-4.52,4.4-1.4,2.53-3.41,6.1-2.55,8.14.98,2.33,5.48,5.37,7.27,4.74,5.29-1.87,11.67-4.25,14.6-8.51,6.3-9.15,2.76-18.68-7.86-26.48-11.05-8.12-23.66-5.87-29.61,6.28-1.78,3.64-1.61,10.15.61,13.23,1.94,2.69,8,2.4,13.14,3.65ZM271.78,509.68c-.31-6.2-.71-11.29-.55-11.31,7.57-.83,15.19-1.22,21.39-1.57-6.52-7.03-16.61-9.42-23.16-3.32-2.4,2.24-4.14,6.86-3.65,10,.4,2.56,4.53,6.4,7.04,6.43,6.33.08,12.68-1.67,21.16-3.03-8.99-9.04-15.07-9.36-22.23,2.8Z"/>
  <path d="M520.91,720.5c15.21-2.24,28.49-7.24,34.97-22.96,5.8-14.08,3.84-26.08-7.78-36.02-8.14-6.96-17.39-12.62-26.09-18.94-3.71-2.69-7.25-5.6-8.91-6.89,12.98-3.01,28.22-3.5,40.19-10.01,19.78-10.75,29.67-29.69,29.2-52.85-.18-8.59-1.22-17.18-2.16-25.73-1.5-13.66,2.48-25.39,11.68-35.78,12.35,5.26,22.34,16.68,37.74,12.46-11.13-4.73-22.27-9.46-33.4-14.18.33-1.02.66-2.05.99-3.07,4.69.74,9.47,2.5,14.04,2.05,15.24-1.51,30.6-2.89,45.55-6.05,17.12-3.62,34.19-6.87,50.9-.47,29.32,11.22,39.23,47.91,20.66,74.82-6.62,9.6-13.7,19.05-28.85,22.98,14.4-13.74,24.13-26.71,23-45.37-1.38-22.85-17.2-38.75-40.22-39.12-24.99-.4-41.86,12.95-54.41,32.85-6.03,9.57-10.9,19.87-14.51,31.21,5.26-7.61,11.19-14.86,15.64-22.92,8.73-15.82,20.34-27.65,38.39-32.1,15.57-3.84,33.94,3.22,40.33,15.57,7.05,13.65,4.26,32.14-7.79,41.05-5.73,4.24-13.51,6.83-20.68,7.75-15.1,1.94-30.4,2.29-45.44,3.29,2.34-21.87,25.04-44.23,39.15-39.84-2.26,3.79-5.93,7.68-6.64,12.05-.39,2.39,4.35,8.05,6.57,7.94,5.19-.25,12.4-1.64,14.84-5.25,3.31-4.9,5.51-13.4,3.41-18.3-2.05-4.79-9.86-9.29-15.59-9.93-18.85-2.11-31.41,9.34-39.87,24.22-7.17,12.6-11.67,26.71-18.71,43.37,15.65-7.24,27.91-14.68,43.99-12.57-11.35,7.33-22.65,12.37-30.85,20.53-8.67,8.62-16.42,19.39-21,30.67-9.68,23.86-22.39,44.81-43.66,59.91-1.03.73-1.78,1.86-2.11,3.34,20.83-9.21,34.82-24.88,43.88-45.61,7.94-18.17,17.65-35.23,33.6-47.94,16.1-12.82,34.76-19.35,55.51-21.89-5.13,3.3-10.19,6.71-15.4,9.89-26.74,16.33-45.36,39.51-60.83,66.62-18.1,31.73-46.54,50.11-83.55,53.39-5.05.45-10.31-1.57-15.48-2.44l-.32.27Z"/>
  <path d="M356.89,308.98c-17.76,10.48-36.42,19.7-53.08,31.71-34.54,24.89-33.94,80.63.04,105.15,12.17,8.78,25.81,10.01,40.09,8.48,3.03-.32,6.04-.8,10.14-1.35-26.02,21.28-73.92,12.3-93.52-16.52-25.51-37.51-12.06-86.56,29.52-106.34,15.22-7.24,31.18-12.91,46.4-20.15,30.54-14.53,41.21-35,37.41-68.64-1.49-13.17-2.8-26.48-2.54-39.69.3-15.48,7.13-27.74,22.47-33.96-12.13,10.14-13.75,23.85-12.87,38.1.79,12.89,1.84,25.82,3.82,38.57,5.87,37.73-6.8,66.45-38.94,87.61-12.69,8.35-24.9,18.56-34.45,30.27-15.1,18.52-8.62,48.12,11.13,60.3,13.42,8.28,26.7,7.34,42.04-3.76-15.19,2.87-28.89,3.84-40.31-7.08-13.42-12.84-14.31-37.53-.97-50.52,7.92-7.71,16.89-14.34,25.45-21.38,5.83-4.78,12.04-9.12,17.59-14.2,5.54-5.06,10.48-10.79,15.68-16.22.81.52,1.62,1.05,2.44,1.57-4.86,6.78-8.87,14.42-14.76,20.14-11.29,10.99-23.85,20.68-35.5,31.33-9.83,8.99-11.91,24.16-5.63,35.61,5.61,10.22,16.55,15.64,28.36,11.3,5.77-2.12,11.63-8.25,14.15-14.01,3.97-9.08-2.23-18.45-11.12-19.37-10.46-1.09-12.69,5.68-12.28,14.49-8.21-5.99-8.86-12.37-2.32-19.11,11.37-11.72,31.72-6.78,39.16,9.5,8.58,18.79-.28,47.3-18.05,58.06-18.78,11.37-45.7,10.19-60.86-2.66-16.72-14.18-23.72-41.47-16.46-61.84,7.88-22.15,24.83-35.37,44.06-46.71,8.63-5.09,16.93-10.75,25.38-16.15-.55-.84-1.1-1.68-1.66-2.52ZM278.01,347.91c-21.85,19.36-24.43,59.52-8.31,80.39-12.28-30.15-8.64-56.08,8.31-80.39Z"/>
  <path d="M657.92,416.65c-4.24,3-9.09,5.42-12.63,9.1-24.15,25.07-48.12,50.32-71.96,75.68-17.05,18.14-34.25,36.17-50.39,55.1-3.56,4.17-2.91,11.93-4.25,18.26,7.05-3.01,13.24-4.95,18.59-8.24,2.74-1.69,4.69-5.57,5.76-8.87,2.64-8.11,4.57-16.45,6.78-24.69l2.58.79c0,7.66-.46,15.35.08,22.97,2.67,38.27-28.03,54.92-60.32,47.79-20.47-4.52-29.46-15.64-29.9-35.07-.55-24.84,9.88-42.08,30.22-47.69,12.59-3.47,25.66-5.22,38.52-7.74.31.85.62,1.69.94,2.54-6.05,2.38-12,5.12-18.2,7.02-5.11,1.56-10.65,1.73-15.8,3.19-22.93,6.47-33.12,25.73-25.87,50.9,8.55-6.14,17.68-10.46,19.32-22.24.31-2.21,2.3-5.95,3.61-5.99,15.63-.52,21.45-14.21,30.39-22.98,38.88-38.14,76.96-77.09,115.56-115.52,7.33-7.3,15.17-14.34,23.72-20.1,9.04-6.09,19-5.54,28.11,1.09,9.3,6.77,9.4,16.24,7.39,26.19-.34,1.71-.99,4.12-2.24,4.76-5.39,2.76-10.9,5.53-16.7,7.04-1.49.39-4.18-3.83-6.31-5.93,3.56-3.59,7.12-7.19,11.51-11.63-3.21-4.93-8.82-3.82-13.17.25-10.73,10.02-21,20.57-30.88,31.42-1.33,1.46-.06,6.18,1.17,8.87,1.51,3.34,4.23,6.13,7.14,10.14-6.52-2.17-10.71-3.57-14.91-4.96,1.63,3.87,3.27,7.74,6.31,14.95-5.62-4.42-9.49-7.46-15.03-11.82-8.36,8.63-17.91,17.95-26.82,27.85-7.18,7.97-13.67,16.58-20.35,24.99-7.81,9.84-9.84,21.33-9.02,33.5.7,10.38,2.21,20.75,2.21,31.13,0,25.21-14.72,41.9-39.6,45.88-20.38,3.26-41.93-4.3-53.06-18.82,8.65,1.4,17.02,3.58,25.46,3.96,32.38,1.43,48.81-13.95,50.47-46.24.53-10.33.62-20.81,2.52-30.92,3.91-20.78,20.65-33.07,33.81-47.46,21.28-23.26,43.29-45.85,64.99-68.74,9.64-8.02,19.33-15.92,34.12-9.86-3.82-12.16-13.69-15.18-21.24-7.88-5.18,5-8.47,11.96-12.61,18.05Z"/>
  <path d="M482.64,275.7c4.7,16.5.89,23.67-16.06,28.42-9.3,2.61-19.06,3.62-28.33,6.33-13.9,4.07-27.54,8.99-40.84,13.41.04-.13.28-2.58,1.38-4.56,8.12-14.59,6.01-29.8,3.23-45.16-3.65-20.12-7.23-40.26-10.51-60.44-2.4-14.78,1.44-27.43,12.74-38.05,9.92-9.32,18.89-19.66,28.27-29.56.74-.78,1.82-1.52,2.05-2.45,6.87-27.14,30.33-26.8,50.99-30.14,11.54-1.87,23.45-1.39,38.36-2.13-8.45,2.96-14.3,5.01-20.16,7.06-.05.8-.1,1.59-.14,2.39,6.33,1.35,12.65,2.7,18.98,4.05-.03.87-.06,1.75-.09,2.62-11.5-.81-23-1.62-34.5-2.43-.3,1.16-.61,2.32-.91,3.47,5.18,2.97,10.36,5.94,16.67,9.56-14.56-1.19-27.6-2.26-40.68-3.34-.25,14.08-3.81,18.56-16.78,22.94-2.19.74-4.56,2.16-5.9,3.97-6.09,8.2-11.17,17.25-17.91,24.85-6.92,7.8-5.86,15.44-4.7,24.82,2.59,20.92,8.07,40.76,17.84,59.25,2.47,4.68,10.58,11.58,12.05,10.69,5.89-3.53,12.37-8.96,14.51-15.12,2.37-6.82,4.2-8.19,10.09-5.15l-.33-.38c.51,8.23,1.01,16.46,1.47,23.81,3.79-3.27,6.71-5.81,9.64-8.34l-.41-.39ZM446.07,128.12c-3.13,5.44-6.52,8.8-5.83,10.62,1.63,4.31,5.2,7.88,7.98,11.75,2.2-2.74,6.55-5.87,6.14-8.14-.75-4.16-4.32-7.81-8.29-14.23ZM416.92,298.42c3.8-7.21.37-16.13-2.53-25.2-2.22-6.96-3.69-14.16-5.86-21.13-.47-1.51-2.52-2.52-3.84-3.76-.8,1.37-2.43,2.88-2.23,4.1.5,3.13,1.83,6.12,2.8,9.17,4.03,12.69,8.04,25.38,11.67,36.83ZM400.76,236.27c4.14-4.82,5.93-6.92,8.65-10.08-15.68,3.77-2.08-13.28-13.43-14.87,1.57,8.2,2.91,15.22,4.78,24.95Z"/>
  <path d="M457.45,583.96c-24.65-32.14-43.53-63.92-47.11-102.37-2.46-26.42,7.15-49.25,24.61-68.9,1.66-1.87,3.59-3.52,5.54-5.09.72-.58,1.84-.66,2.89-1.01-8.72,65.53,22.49,97.33,93.52,96.87-7.2,2.41-14.36,4.95-21.62,7.16-2.72.83-5.66.89-8.5,1.32-38.58,5.89-51.98,22.29-49.94,61.1.14,2.7.29,5.4.6,10.92ZM444.5,506.44c-5.73-19.2-11.99-40.2-17.23-57.77-1.93,24.63,3.72,43.99,17.23,57.77Z"/>
  <path d="M521.24,720.23c-22.03-2.03-43.06,1.6-62.42,12.05,1,.31,2.86.88,6.15,1.88-15.24,8.24-29.56,7.37-44.13,3.7-21.38-5.38-39.18-17.06-56.05-30.77-9.68-7.86-20.31-14.56-30.34-22.01-2.02-1.5-3.27-4.05-4.87-6.11,2.65-1.02,5.27-2.82,7.97-2.94,14.69-.62,25.5,8.27,36.89,15.66,8.71,5.65,17.08,12.01,26.31,16.63,27.76,13.89,60.22,7.84,85.57-14.82,7.46-6.67,15.34-12.92,23.35-18.93,3.67-2.75,7.92-5.07,12.25-6.55,11.72-4,22.27-1.37,27.33,6.18,5.43,8.11,3.83,20.83-5.19,29.19-6.98,6.47-15.37,11.43-23.15,17.07-.02.01.31-.26.31-.26Z"/>
  <path d="M736.61,364.18c-7.1-.52-11.67-.86-18.8-1.38,4.48,5.5,7.82,9.59,11.4,13.98-13.81.77-18.12-20.05-34.79-15.14,2.93,4.12,5.3,7.45,8.4,11.82-19.13-1.22-22.56-20.46-30.27-23.86-5.38,2.59-9.32,4.76-13.5,6.26-.91.33-3.99-2.18-3.84-2.57,1.03-2.83,2.63-5.46,5.12-10.18-2.96.15-6.02.3-9.08.46.35,5.01.71,10.02,1.06,15.02,5.38-.48,10.76-.96,17.16-1.52.97,5.92-5.3,8.34-10.53,7.21-16.17-3.48-31.05,2.92-46.26,5.21-26.81,4.04-51.24-1.87-75.11-12.65-12.94-5.84-25.85-10.75-40.42-6.37,3.41-14.9,6.74-29.49,10.38-45.39,7.09,3.86,15.43,8.38,23.74,12.95,10.98,6.04,21.92,12.16,32.91,18.18,14.08,7.71,29.06,9.49,44.84,7.25,9.17-1.3,18.48-1.69,28.26-2.53v16.66c-6.14-.02-10.81-11.42-15.8-1.77,3.28,1.57,6.01,3.27,8.98,4.16,2.06.62,5.12,1,6.53-.08,2.11-1.61,4.35-4.55,4.48-7.02.74-14.89,2.68-16.82,17.86-17.02,18.52-.25,35.2,5.82,51.22,14.35,7.82,4.16,15.62,8.37,26.06,13.96ZM530.61,343.67c3.42,6.69,8.97,11.54,15.08,6.76,3.32-2.6,14.64-3.53,9.72-11.88-10.63-4.37-12.64,17.2-24.79,5.12ZM572.57,361.96c.56-1.58,1.13-3.17,1.69-4.75-6.72-1.88-13.44-3.76-20.16-5.64-.43,1.4-.86,2.8-1.3,4.2,6.59,2.06,13.17,4.13,19.76,6.19Z"/>
  <path d="M489.07,304.92c1.4-2.84,2.81-5.67,4.3-8.7,7.27,10.59,7.57,34.3-2.22,48.47-9.83,14.24-21.75,27.34-34.3,39.32-15.28,14.59-31.58,27.79-42.11,46.85-10.28,18.6-10.61,38.34-9.64,61.53-8.85-14.89-9.66-28.81-10.3-42.44-1.98-42.54,17.24-74.24,51.24-98.29,17.64-12.47,34.68-25.69,43.04-46.78,0,0-.01.03-.01.03ZM447.85,368.39c1.22,1.23,2.44,2.47,3.67,3.7-15.93,4.96-38.58,28.23-41.78,42.92-1.36-1.37-2.72-2.74-4.09-4.1,14.07-14.17,28.13-28.34,42.2-42.51Z"/>
  <path d="M446.25,430.03c11.68-3.9,21.22-7.52,31.03-10.14,3.73-1,8.96-1.1,11.98.8,13.58,8.59,24,19.8,29.29,35.75,4.59,13.83,13.5,18.24,26.95,12.24,14.46-6.45,27.77-15.48,39.97-22.46-2.82,24.44-46.83,53.09-78.24,47.04-39.3-7.57-66.64-41.71-60.97-63.23ZM479.93,429.9c-2.14.23-4.49-.03-6.38.78-3.95,1.7-7.66,3.96-11.48,5.98,2.49,3.94,4.14,9.99,7.65,11.39,8.56,3.4,17.92,4.99,27.1,6.34,1.24.18,5.07-5.47,4.67-7.92-1.42-8.66-12.31-16.4-21.56-16.57Z"/>
  <path d="M472.27,261c-2.56-9.99-5.64-19.89-7.56-30-3.17-16.74,2.52-27.79,16.2-33.36,14.27-5.81,32.1-1.21,40.87,10.25,9.41,12.3,9.73,25.54,5.22,39.68-2.11,6.62-3.4,13.51-5.01,20.05-4.12,4.35-8.08,9.61-13.12,13.44-3.06,2.32-8.28,4.07-11.69,3.11-5.23-1.48-9.73-5.51-14.54-8.46,0,0,.41.39.41.39-3.7-5.16-7.41-10.32-11.11-15.47l.33.38ZM519.97,221.98c-15.7,3.81-31.93,7.75-47.83,11.6,10.13,11.48,39.49,3.92,47.83-11.6Z"/>
  <path d="M233.03,596.26c-2.7-17.27-13.93-25.61-25.76-34.3-19.34-14.22-24.55-32.13-17.36-55.23,2.45-7.86,6.14-15.34,8.6-23.2,2.31-7.4,3.75-15.07,5.61-22.82,12.49,2.6,17.97,10.09,15.03,24.75-1.69,8.41-4.99,16.48-7.32,24.77-4.76,16.91-.12,30,14.04,40.64,5.43,4.08,11.18,7.89,16,12.63,9.18,9.02,8.86,13.42.08,22.31-3.21,3.25-5.96,6.95-8.93,10.45Z"/>
  <path d="M444.97,705.45c-18.16,6.67-34.09-.11-49.36-9.35-6.73-4.07-12.95-9.04-19.09-13.99-12.62-10.17-26.35-17.34-44.3-16.6,0-6.74-.71-12.8.34-18.53.44-2.36,5.1-6.07,7.11-5.66,10.29,2.13,20.72,4.5,30.39,8.5,13.42,5.56,26.23,12.62,39.27,19.11,1.86.93,3.89,1.89,5.26,3.37,9.91,10.65,19.68,21.44,30.37,33.14Z"/>
  <path d="M524.25,654.23c-13.51,9.77-27.67,18.6-40.17,29.36-23.98,20.64-35.07,20.19-54.85-4.55-1.71-2.14-3.08-4.54-5.72-8.48,22.72-.31,38.53-12.53,55.13-23.71,17.67-11.91,26.16-9.72,45.6,7.39Z"/>
  <path d="M224.57,464.82c25.28,1.09,30.79,9,23.66,30.71-2.11,6.44-4.38,13-5.13,19.66-1.27,11.32,3.63,20.1,13.48,26.05,3.68,2.22,7.39,4.44,10.8,7.04,6.32,4.84,6.58,9.74-.25,14.61-4.04,2.88-7.83,6.12-9.84,7.7-8.64-8.08-16.3-16.22-24.95-23.12-13.74-10.94-17.97-25.72-10.73-44.31,4.76-12.23,8.94-24.31,2.96-38.35Z"/>
  <path d="M489.07,304.92s.01-.03.01-.03c-25.08,23.28-50.38,46.34-75.09,70.01-5.42,5.19-8.75,12.56-13.53,19.66-1.86-15.18-3.89-29.18-5.22-43.26-1.12-11.93,5.11-20.25,15.76-24.25,11-4.13,22.7-6.33,33.87-10.06,12.81-4.29,25.33-9.47,38.1-13.89,1.63-.56,4.04,1.16,6.1,1.82ZM445.7,326.07c-28.34,1.18-41.06,8.59-41.33,22.62,13.39-7.33,27.66-15.13,41.33-22.62Z"/>
  <path d="M322.9,678.68c-13.93-1.61-27.66-3.63-41.46-4.72-30.65-2.42-45.66-25.56-49.02-51.15-.93-7.07,4.05-14.93,6.32-22.42,1.17.14,2.34.29,3.51.43,2.41,6.95,4.65,13.95,7.25,20.83,7.91,20.98,19.02,28.8,41.2,29.2,3.58.06,7.17-.04,10.74.1,19.29.78,25.67,9.55,21.45,27.72Z"/>
  <path d="M508.59,742.23c-6.37-5.24-13.83-9.17-20.8-13.68,1.06-1.59,2.13-3.19,3.19-4.78-7.35,2.79-4.12,6.5-.52,10.1q14.72,14.78,5.7,33.79c-1.22,2.58-2.11,5.34-2.86,8.1-3.05,11.07-8.68,19.18-16.61,24.12-.11.23-.22.46-.37.69-1.82,2.86-3.43,5.83-5.01,8.82,8.09-2.8,13.65-9.67,20.92-13.73,2.07-1.16,2.66-4.9,4.04-7.4,4.57-8.28,8.58-16.96,13.96-24.67,6.21-8.9,6.76-14.44-1.64-21.35Z"/>
  <path d="M269.28,574.03c3.25,9,5.62,17.62,9.38,25.57,7.13,15.08,19.5,22.01,36.28,21.83,14.33-.15,14.41.27,12.23,14.5-.59,3.83-1.35,7.63-1.72,9.65-13.15-1.52-25.37-3.49-37.66-4.21-14.23-.83-23.21-8.06-28.64-20.6-1.71-3.94-3.16-7.98-4.76-11.97-7.23-18-3.71-26.13,14.89-34.78Z"/>
  <path d="M667.62,695.08c.6-3.98,1.12-7.47,1.64-10.96,3.18,1.52,6.36,3.04,9.54,4.56-2.14,3.6-3.52,9.28-6.57,10.4-8.11,2.97-15.3.25-19.96-7.8-10.63-18.36-2.62-44.97,17.63-59.28,10.77-7.61,22.64-11.64,35.39-8.82,6.27,1.38,14.42,5.5,16.71,10.61,2.34,5.22.82,15.44-3.11,19.43-6.01,6.11-15.28,9.43-23.65,12.7-8.57,3.35-18.26,4.08-26.47,8.01-10.09,4.83-9.85,14.86-1.15,21.16ZM678,661.03c6.5-1.81,14.21-3.53,21.57-6.21,3.84-1.4,7.94-3.83,10.32-7,2.02-2.69,3.52-8.43,2.03-10.45-2-2.72-7.1-4.3-10.86-4.27-3.63.03-7.37,2.46-10.81,4.3-6.32,3.38-12.08,8.8-18.76,10.31-11.55,2.61-14.01,10.1-15.3,20,5.01-1.47,9.16-2.69,12.53-3.67-1.73-3.53-3.2-6.54-4.66-9.54.93-.77,1.86-1.55,2.79-2.32,3.48,2.76,6.96,5.53,11.16,8.86Z"/>
  <path d="M321.5,222.25c4.26,1.76,7.31,3.01,10.36,4.27-1.3,1.87-3.09,5.52-3.82,5.31-3.8-1.06-9.34-2.27-10.44-4.98-1.38-3.41-.3-10.94,1.97-12.04,4.75-2.3,12.2-3.86,16.37-1.64,14.57,7.76,18.71,21.78,17.44,37.4-1.79,21.96-19.32,42.73-39.37,47.4-13.45,3.13-25.83-1.69-29.23-11.4-4.02-11.47,1.3-21.45,15.37-27.74,7.49-3.35,15.73-5.21,22.85-9.16,5.75-3.19,11.65-7.66,15.07-13.09,4.24-6.73,2.26-13.47-5.57-17.98-5.86-3.38-9.08-2.6-10.99,3.64ZM345.25,248.8c-4.17,2.76-6.87,5.07-9.98,6.5-10.73,4.94-21.99,8.9-32.23,14.68-3.57,2.01-4.77,8.22-7.06,12.51,4.54,1.88,9.38,5.82,13.58,5.23,11.72-1.65,20.68-8.78,27.13-17.03-2.47-3.97-4.38-7.03-7.73-12.42,6.5,1.21,9.74,1.82,13.8,2.58.89-4.34,1.71-8.33,2.48-12.05Z"/>
  <path d="M593.18,327.39c6.19-.8,12.79-.49,18.5-2.59,20.07-7.38,40.16-14.86,59.61-23.71,15.03-6.84,29.58-13.59,46.21-7.02,8.82,3.48,14.99,9.57,15.57,19.94.59,10.63-5.56,16.84-14.08,20.81-7.02,3.27-14.2,2.56-19.34-4.19-3.87-5.07-4.79-10.32.71-15.06.85.19,2.02.34,2.02.47-.07,5.46-.58,11.83,7.08,11.72,3.56-.05,10-3.36,10.06-5.35.16-5.43-.64-12.9-4.18-16.02-8.42-7.43-19-5.07-28.43-.83-11.42,5.14-21.97,12.67-33.78,16.39-16.21,5.11-33.2,7.86-49.97,10.99-3.14.59-6.82-1.77-10.26-2.76.1-.93.19-1.87.29-2.8Z"/>
  <path d="M741.02,399.22c10.49-.99,17.4,4.06,21.8,15.95,10.45,28.18-5.88,60.04-35.03,68.34-13.61,3.87-25.44-.62-29.02-11.03-4.06-11.78,2.1-24.13,14.82-29.64,7.86-3.4,16.16-6,23.53-10.22,18.72-10.72,19.4-16.85,4.74-31.64-.43-.43-.38-1.35-.55-2.04l-.3.29ZM756.83,430.02c-6.84,4.7-12.82,9.27-19.25,13.09-6.45,3.83-13.42,6.78-20.04,10.36-5.85,3.16-10.82,8.39-7.05,14.59,2.21,3.64,9.34,6.46,13.97,6.08,18.73-1.54,35.26-24.47,32.37-44.12Z"/>
  <path d="M599.32,308.55c-20.65-17.21-19.79-49.86-.51-68.92,21.68,24.11,22.36,50.03.51,68.92Z"/>
  <path d="M406.9,757.99c-8-3.05-17.15-4.56-23.78-9.47-14.63-10.84-27.6-23.91-42.05-35.03-7.44-5.72-16.28-10.08-25.14-13.22-2.97-1.05-7.95,3.57-12.01,5.59,2.25,3.34,4.5,6.69,8.02,11.91-4.22-.59-11.61.03-12.48-2.07-2.15-5.19-3.88-13.95-1.1-16.98,4.1-4.47,13.17-8.37,18.52-6.85,11.03,3.13,21.8,8.88,31.22,15.59,19.21,13.69,37.43,28.75,56.14,43.15,1.63,1.25,3.83,1.76,5.76,2.62-1.03,1.59-2.06,3.17-3.08,4.76Z"/>
  <path d="M207.21,451.54c-5.83,2.07-11.23-1.5-14.81-8.49-3.92-7.65-.56-19.1,7.07-23.6,9.14-5.39,18.74-4.95,27.45.72,5.94,3.87,11.51,8.62,16.33,13.83,13.7,14.81,27.73,28.95,48.15,34.48-20.48-.58-37.6-8.39-52.12-22.58-5.34-5.22-10.97-10.51-17.37-14.19-6.63-3.8-15.64-6.06-19.54,2.75-1.76,3.98,2.87,10.8,4.83,17.07Z"/>
  <path d="M262.15,288.78c15.88,17.11,13.29,35.07-8.49,58.93-10.95-22.81-7.74-45.07,8.49-58.93Z"/>
  <path d="M621.69,718.66c1.61.08,3.73.84,4.72.09,2.52-1.87,4.53-4.42,6.74-6.7-2.66-1.89-6.08-5.91-7.84-5.28-6.55,2.33-13.36,5.24-18.62,9.66-16.07,13.51-33.2,23.66-55.09,22.65-1.28-.06-2.54-.27-4.08-1.25,24.44-4.42,42.14-20.31,61.13-34.07,7.81-5.66,16.72-8.55,26.17-3.58,6.51,3.42,8.96,12.7,4.38,18.5-4.88,6.17-11.07,8.34-17.52-.02Z"/>
  <path d="M477.42,795.75c2.14-21.48,2.42-40.83-8.8-61.12,5.7-1.19,12.76-4.62,14.76-2.72,5.85,5.54,13.97,13.6,13.4,19.98-1.13,12.72-7.18,25.09-11.88,37.35-1.05,2.73-4.91,4.37-7.48,6.52Z"/>
  <path d="M720.37,605.02c32.39-21.28,34.25-51.2,25.46-84.69,12.88,15.22,18.65,32.15,12.92,52.04-5.61,19.49-20.77,27.66-38.38,32.66Z"/>
  <path d="M561.87,251.75c13.91.18,19.97,8.11,19.43,21.42-.37,9.16,2.66,18.47,4.11,27.32-19.56-4.4-26.78-18.76-23.55-48.74Z"/>
  <path d="M631.66,480.75c12.77,8.59,26.68,5.46,34.65-7.79,7.29-12.12,1.45-20.95-15.47-23.35,9.28-7.78,21.76-4.46,26.31,6.99,4.26,10.75.67,19.95-6.6,27.63-8.68,9.18-24.16,13.27-32.42,8.54-3.72-2.13-6.11-6.59-9.1-9.99.88-.67,1.76-1.35,2.64-2.02Z"/>
  <path d="M638.03,251.65c3.81,25.72-1.67,44.56-22.04,47.51,1.11-9.51,2.89-19.43,3.28-29.4.45-11.81,5.34-17.09,18.77-18.1Z"/>
  <path d="M446.59,418.19c3.63-16.93,14.97-27.92,29.3-38.18v35.38c-7.78,1.99-17.59,4.5-27.4,7.01-.64-1.4-1.27-2.8-1.91-4.2Z"/>
  <path d="M457.85,215.62c-8.24,9.79-8.03,21-.69,31.73,1.47,2.15,2.47,7.42,1.78,7.79-3.06,1.69-7.2,3.55-10.25,2.74-8.54-2.28-13.56-15.69-11.13-27.37,2.35-11.29,7.66-15.44,20.29-14.89Z"/>
  <path d="M584.79,305.03c-19.88,9.9-37.69-1.33-45.41-28.09,8.41-3.43,16.82-4.4,20.19,5.94,4.1,12.57,12.56,19.09,25.22,22.16Z"/>
  <path d="M619.42,306.7c6.64-7.09,14.68-13.81,20.29-22.16,6.56-9.78,10.43-11.99,22.71-7.29-9.77,21.49-22.83,36.91-43,29.44Z"/>
  <path d="M527.79,451.7c37.64,2.21,49.06-31.6,71.72-50.3-7.28,11.51-14.31,23.17-21.89,34.48-8.89,13.27-22.28,19.91-37.46,22.72-3.99.74-8.57-1.69-12.88-2.66.17-1.41.34-2.82.5-4.24Z"/>
  <path d="M216.87,623.1c-1-3.98-3.04-8.03-2.79-11.93.74-11.65-5.65-18.13-14.32-24.31-5.05-3.6-8.44-9.53-13.99-16.08,30.32,2.85,39,17.75,31.11,52.31Z"/>
  <path d="M554.63,374.1c1.98,2.78,5.21,7.07,8.14,11.56,1.33,2.04,2.7,4.41,2.92,6.74.7,7.44.87,14.92,1.38,25.08-3.16-4.56-5.24-7.55-8.92-12.85-5.65,1.77-13.12,4.11-20.71,6.48,6.24-13.43,12.25-26.37,17.2-37.01Z"/>
  <path d="M237.19,413.48c-11.48-4.81-19.99-10.91-21.47-22.18-.6-4.57,3.1-9.7,4.84-14.57,4.53,3.27,11.46,5.67,13.05,10.02,2.84,7.78,2.45,16.74,3.58,26.74Z"/>
  <path d="M217.93,333.38c19.07-3.5,29.94,10.24,26.17,36.01-7.25-14.91-26.27-17.73-26.17-36.01Z"/>
  <path d="M495.22,400.34c1.62-8.05,1.95-16.17,5.15-22.93,1.66-3.52,8.32-6.28,12.84-6.48,7.11-.31,9.05,5.59,9.05,12.03,0,6.03-2.69,8.61-8.75,9.97-6.32,1.41-12.18,4.85-18.29,7.41Z"/>
  <path d="M744.39,502.9c10.51-5.78,15.86-20.39,31.41-16.13-1.6,16.68-15.86,24.1-31.41,16.13Z"/>
  <path d="M691.12,265.92c-2.19,17.29-7.78,22.61-23.75,23.28,1.89-15.67,9.39-23.3,23.75-23.28Z"/>
  <path d="M779.32,510.8c11.03-14.62,14.16-28.19,1.89-43.39,10.49,3.4,13.56,10.95,13.68,19,.16,10.05-2.63,19.48-15.57,24.39Z"/>
  <path d="M327.3,715.56c7.84,5.74,14.23,10.41,22.84,16.71-18.24,3.57-24.4-.9-22.84-16.71Z"/>
  <path d="M741.32,398.93c-2.65,1.67-5.31,3.34-7.94,4.99,5.02,2.64,8.13,4.27,11.24,5.9-1.62,2.05-3.9,6.09-4.75,5.81-3.89-1.28-9.03-2.9-10.69-6.02-3.73-6.98,3.55-15.74,11.29-14.44.4.07.39,2.63.56,4.04,0,0,.29-.28.29-.28Z"/>
  <path d="M356.62,270.96c.77-14.84,1.52-29.41,2.19-42.39,5.22,13.14,4.35,27.7-2.19,42.39Z"/>
  <path d="M639.51,478.27c21.26-6.31,23.85-8.96,21.24-22.79,5.47,7.5,3.77,13.4-1.26,17.94-5.22,4.72-10.99,10.33-19.98,4.85Z"/>
  <path d="M773.1,414.55v37.12c-.51.01-1.02.02-1.53.03v-37.12l1.53-.03Z"/>
  <path d="M446.42,618.39v-8.25c10.03-.14,15.05,5.2,16.32,13.7.4,2.71-2.87,5.96-4.46,8.97-.91-.47-1.82-.94-2.73-1.41.46-3.21.92-6.41,1.37-9.62-1.11-.36-2.23-.72-3.34-1.09-2.21,4.7-4.41,9.41-6.6,14.11-8.04,3.22-13.65-12.48-22.92-2.96.79.96,1.27,1.92,2.05,2.42,2.78,1.78,5.66,3.39,8.51,5.07-1.66,1.56-4.15,4.74-4.85,4.39-3.44-1.73-7.74-3.79-9.15-6.91-1.41-3.11.23-7.61.62-12.63,14.52,2.38,9.72-12.42,15.51-19.68,3.18,5.9,5.51,10.23,7.84,14.55.61-.23,1.22-.46,1.83-.68Z"/>
  <path d="M359.72,616.77c2.11-5.89,4.22-11.78,6.34-17.67,1.65.55,3.29,1.11,4.94,1.66-2.15,5.98-4.31,11.96-6.46,17.93-1.6-.64-3.21-1.28-4.81-1.93Z"/>
  <path d="M320.98,588.05c.38-1.96.7-4.31,1.44-6.53.09-.27,3.53.02,3.6.4.43,2.24.39,4.58.35,6.89-.01.64-.4,1.62-.9,1.85-4.14,1.97-8.28,4.01-12.61,5.45-.6.2-2.25-2.76-3.42-4.25,3.62-1.2,7.24-2.4,11.53-3.82Z"/>
  <path d="M288.56,530.46c-1.4.04-2.95.48-4.19.05-3.92-1.35-7.77-2.94-11.46-4.81-.21-.11,1.08-4.98,1.9-5.05,4.74-.4,9.54-.02,14.31.09-.29,3.34-.59,6.68-.89,10.03-.01,0,.33-.32.33-.32Z"/>
  <path d="M497.27,452.05c-10.46-4.37-20.34-8.5-30.83-12.89,14.81-7.11,29.95-.33,30.83,12.89Z"/>
</svg>